<svg width="40" height="40" viewBox="0 0 40 40" fill="none" xmlns="http://www.w3.org/2000/svg">
<path d="M19.7908 0C8.86138 0 0 8.95375 0 20C0 31.0462 8.86011 40 19.7908 40C30.7216 40 39.5817 31.0462 39.5817 20C39.5817 8.95375 30.7216 0 19.7908 0ZM16.1257 29.2583V9.99936C16.1257 9.79458 16.2904 9.62949 16.4917 9.62949H22.7227C22.9253 9.62949 23.0887 9.79586 23.0887 9.99936V26.0613C23.0887 26.2046 23.1697 26.3352 23.2989 26.3966L29.1689 29.2059C29.3804 29.307 29.3095 29.6295 29.0752 29.6295H16.493C16.2904 29.6295 16.127 29.4631 16.127 29.2596L16.1257 29.2583Z" fill="white"/>
</svg>
